<svg width="25" height="25" viewBox="0 0 25 25" fill="none" xmlns="http://www.w3.org/2000/svg">
<path d="M5.46839 20.3125H19.5309C19.8278 20.3126 20.1136 20.4254 20.3306 20.6281C20.5475 20.8308 20.6794 21.1083 20.6997 21.4045C20.7199 21.7007 20.627 21.9936 20.4396 22.2239C20.2522 22.4542 19.9844 22.6048 19.6903 22.6453L19.5309 22.6562H5.46839C5.17148 22.6562 4.88567 22.5434 4.66872 22.3407C4.45176 22.138 4.31984 21.8605 4.2996 21.5642C4.27936 21.268 4.37232 20.9752 4.55969 20.7448C4.74706 20.5145 5.01488 20.3639 5.30902 20.3234L5.46839 20.3125H19.5309H5.46839ZM12.3403 1.57344L12.4996 1.5625C12.7828 1.56251 13.0564 1.66507 13.2698 1.8512C13.4833 2.03733 13.6221 2.29445 13.6606 2.575L13.6715 2.73438V14.7469L17.195 11.225C17.3937 11.0264 17.6571 10.9057 17.9373 10.8851C18.2175 10.8644 18.4958 10.9451 18.7215 11.1125L18.8528 11.225C19.0514 11.4237 19.172 11.6872 19.1927 11.9674C19.2133 12.2476 19.1326 12.5259 18.9653 12.7516L18.8528 12.8828L13.3278 18.4062C13.1293 18.6047 12.8663 18.7254 12.5864 18.7463C12.3066 18.7672 12.0285 18.6871 11.8028 18.5203L11.6715 18.4062L6.14652 12.8828C5.93684 12.6737 5.8141 12.393 5.80297 12.0971C5.79185 11.8012 5.89316 11.512 6.08654 11.2877C6.27992 11.0635 6.55103 10.9208 6.84536 10.8882C7.13969 10.8557 7.43542 10.9359 7.67308 11.1125L7.80433 11.225L11.3278 14.75V2.73438C11.3278 2.45119 11.4303 2.17759 11.6165 1.96417C11.8026 1.75075 12.0597 1.61195 12.3403 1.57344L12.4996 1.5625L12.3403 1.57344Z" fill="white"/>
</svg>
