<svg width="19" height="19" viewBox="0 0 19 19" fill="none" xmlns="http://www.w3.org/2000/svg">
<path d="M16.6536 4.16156C17.374 5.02606 17.7334 6.03465 17.7334 7.18732C17.7334 11.3649 15.3568 12.5896 13.1235 12.9499C13.4117 13.4541 13.4837 14.0305 13.4837 14.6068V17.5597C13.4837 17.9199 13.2676 18.1361 12.9794 18.1361C12.9035 18.1371 12.828 18.123 12.7576 18.0944C12.6872 18.0658 12.6233 18.0234 12.5695 17.9696C12.5158 17.9159 12.4734 17.8519 12.4448 17.7815C12.4162 17.7111 12.402 17.6357 12.4031 17.5597V14.6068C12.4411 14.3049 12.4088 13.9983 12.3088 13.7109C12.2089 13.4235 12.0439 13.1631 11.8268 12.9499L12.187 12.0133C14.4203 11.7251 16.7256 11.0047 16.7256 7.11527C16.7256 6.17873 16.3654 5.31423 15.717 4.59381L15.5729 4.01827C15.8469 3.32798 15.8721 2.56386 15.6442 1.85702C15.2848 1.92827 14.5644 2.07315 13.3404 2.93765L12.9074 3.0089C11.2059 2.57686 9.42346 2.57686 7.72199 3.0089L7.28894 2.93765C5.99378 2.14519 5.27336 1.92906 4.91236 1.92906C4.69624 2.64948 4.69624 3.44115 4.98361 4.09031L4.84032 4.66586C4.1199 5.38627 3.75969 6.32282 3.75969 7.18732C3.75969 11.0047 5.92094 11.7972 8.29753 12.0854L8.58569 13.0219C8.15344 13.4541 7.93732 14.0305 8.00936 14.6068V17.6318C8.01043 17.7078 7.99625 17.7832 7.96766 17.8536C7.93907 17.924 7.89666 17.9879 7.84293 18.0417C7.7892 18.0954 7.72524 18.1378 7.65484 18.1664C7.58443 18.195 7.50901 18.2092 7.43303 18.2081C7.35705 18.2092 7.28162 18.195 7.21122 18.1664C7.14081 18.1378 7.07685 18.0954 7.02312 18.0417C6.96939 17.9879 6.92698 17.924 6.89839 17.8536C6.86981 17.7832 6.85563 17.7078 6.85669 17.6318V15.9756C4.48011 16.4799 3.54357 15.2552 2.82315 14.3194C2.46294 13.8872 2.17478 13.527 1.81457 13.4549C1.74332 13.3829 1.5264 13.0947 1.59844 12.8066C1.67049 12.5184 1.95865 12.3023 2.24761 12.4464C2.96803 12.5904 3.39949 13.1668 3.83094 13.6711C4.48011 14.5356 5.12849 15.3272 7.07282 14.8958V14.6076C7.00157 14.0313 7.14486 13.4549 7.43303 12.9506C5.27178 12.5184 2.75111 11.2937 2.75111 7.18811C2.75111 6.03544 3.11132 5.02686 3.83174 4.16236C3.61561 3.15456 3.68765 2.07394 4.04786 1.20944L4.40807 0.921272C4.55215 0.849231 5.56074 0.633106 7.64836 1.92906C9.37447 1.49687 11.1805 1.49687 12.9066 1.92906C14.9246 0.560272 16.0052 0.775606 16.1493 0.848439L16.5095 1.13661C16.8697 2.14519 16.9417 3.15377 16.6536 4.16156V4.16156Z" fill="#111111"/>
</svg>
