<svg width="14" height="13" viewBox="0 0 14 13" fill="none" xmlns="http://www.w3.org/2000/svg">
<path d="M11.8125 8.125H10.9375C10.8215 8.125 10.7102 8.1678 10.6281 8.24399C10.5461 8.32017 10.5 8.42351 10.5 8.53125V11.375H1.75V3.25H5.6875C5.80353 3.25 5.91481 3.2072 5.99686 3.13101C6.07891 3.05483 6.125 2.95149 6.125 2.84375V2.03125C6.125 1.92351 6.07891 1.82017 5.99686 1.74399C5.91481 1.6678 5.80353 1.625 5.6875 1.625H1.3125C0.964403 1.625 0.630564 1.7534 0.384422 1.98196C0.138281 2.21052 0 2.52052 0 2.84375L0 11.7812C0 12.1045 0.138281 12.4145 0.384422 12.643C0.630564 12.8716 0.964403 13 1.3125 13H10.9375C11.2856 13 11.6194 12.8716 11.8656 12.643C12.1117 12.4145 12.25 12.1045 12.25 11.7812V8.53125C12.25 8.42351 12.2039 8.32017 12.1219 8.24399C12.0398 8.1678 11.9285 8.125 11.8125 8.125ZM13.3438 0H9.84375C9.25941 0 8.96738 0.657871 9.37891 1.04102L10.3559 1.94822L3.69141 8.13439C3.63023 8.19101 3.58168 8.25828 3.54856 8.33235C3.51544 8.40642 3.49839 8.48583 3.49839 8.56604C3.49839 8.64624 3.51544 8.72565 3.54856 8.79972C3.58168 8.87379 3.63023 8.94106 3.69141 8.99768L4.31129 9.57227C4.37226 9.62908 4.4447 9.67415 4.52447 9.70491C4.60424 9.73566 4.68976 9.7515 4.77613 9.7515C4.8625 9.7515 4.94803 9.73566 5.02779 9.70491C5.10756 9.67415 5.15001 9.62908 5.24098 9.57227L11.9022 3.38508L12.8789 4.29102C13.2891 4.67188 14 4.40527 14 3.85938V0.609375C14 0.447759 13.9309 0.292762 13.8078 0.178482C13.6847 0.0642018 13.5178 0 13.3438 0Z" fill="black"/>
</svg>
